<svg version="1.1" xmlns="http://www.w3.org/2000/svg" xmlns:xlink="http://www.w3.org/1999/xlink" width="84.07754" height="112.53743" viewBox="0,0,84.07754,112.53743"><g transform="translate(-187.50101,-100.9719)"><g data-paper-data="{&quot;isPaintingLayer&quot;:true}" fill-rule="nonzero" stroke="#000000" stroke-linejoin="miter" stroke-miterlimit="10" stroke-dasharray="" stroke-dashoffset="0" style="mix-blend-mode: normal"><path d="M188.7407,113.9944l65.3497,1.1416l-5.1318,97.6352l-48.9853,-2.944z" fill="#b4ff85" stroke-width="1.32374" stroke-linecap="round"/><path d="M254.196,113.8881l16.3118,-11.9029l-8.1411,99.2935l-12.9874,11.132l4.8315,-97.3508z" fill="#b4ff85" stroke-width="0.96714" stroke-linecap="round"/><g stroke-linecap="butt"><path d="M224.2036,166.9605c4.9484,0 9.4336,2.0094 12.6825,5.2583c3.2489,3.2489 5.2583,7.7341 5.2583,12.6825c0,4.9484 -2.0094,9.4336 -5.2583,12.6825c-3.2489,3.2489 -7.7341,5.2582 -12.6825,5.2582c-4.9484,0 -9.4336,-2.0093 -12.6825,-5.2582c-3.2489,-3.2489 -5.2583,-7.7341 -5.2583,-12.6825c0,-4.9484 2.0094,-9.4336 5.2583,-12.6825c3.2489,-3.2489 7.7341,-5.2583 12.6825,-5.2583z" fill="#666666" stroke-width="3.26196"/><path d="M224.1112,176.5337c2.2173,0 4.2271,0.9003 5.6828,2.3561c1.4558,1.4558 2.3562,3.4655 2.3562,5.6828c0,2.2173 -0.9004,4.2271 -2.3562,5.6829c-1.4557,1.4558 -3.4655,2.3561 -5.6828,2.3561c-2.2173,0 -4.227,-0.9003 -5.6828,-2.3561c-1.4558,-1.4558 -2.3562,-3.4656 -2.3562,-5.6829c0,-2.2173 0.9004,-4.227 2.3562,-5.6828c1.4558,-1.4558 3.4655,-2.3561 5.6828,-2.3561z" fill="#dddfea" stroke-width="1.46163"/></g><path d="M210.0442,101.5028l60.1818,-0.0032l-16.5257,13.25l-64.4973,-0.9998z" fill="#b4ff85" stroke-width="0.95049" stroke-linecap="round"/><g stroke-linecap="butt"><path d="M223.1036,122.5605c4.9484,0 9.4336,2.0094 12.6825,5.2583c3.2489,3.2489 5.2583,7.7341 5.2583,12.6825c0,4.9484 -2.0094,9.4336 -5.2583,12.6825c-3.2489,3.2489 -7.7341,5.2582 -12.6825,5.2582c-4.9484,0 -9.4336,-2.0093 -12.6825,-5.2582c-3.2489,-3.2489 -5.2583,-7.7341 -5.2583,-12.6825c0,-4.9484 2.0094,-9.4336 5.2583,-12.6825c3.2489,-3.2489 7.7341,-5.2583 12.6825,-5.2583z" fill="#666666" stroke-width="3.26196"/><path d="M223.0112,132.1337c2.2173,0 4.2271,0.9003 5.6828,2.3561c1.4558,1.4558 2.3562,3.4655 2.3562,5.6828c0,2.2173 -0.9004,4.2271 -2.3562,5.6829c-1.4557,1.4558 -3.4655,2.3561 -5.6828,2.3561c-2.2173,0 -4.227,-0.9003 -5.6828,-2.3561c-1.4558,-1.4558 -2.3562,-3.4656 -2.3562,-5.6829c0,-2.2173 0.9004,-4.227 2.3562,-5.6828c1.4558,-1.4558 3.4655,-2.3561 5.6828,-2.3561z" fill="#dddfea" stroke-width="1.46163"/></g><path d="M247.13291,163.78102c0,12.77539 -10.92868,23.13188 -24.40989,23.13188c-13.48121,0 -24.40989,-10.3565 -24.40989,-23.13188c0,-12.77539 10.92868,-23.13188 24.40989,-23.13188c13.48121,0 24.40989,10.3565 24.40989,23.13188z" fill="none" stroke-width="2" stroke-linecap="butt"/></g></g></svg>